<?xml version="1.0" encoding="UTF-8" standalone="no"?>
<!DOCTYPE svg PUBLIC "-//W3C//DTD SVG 1.1//EN"
 "http://www.w3.org/Graphics/SVG/1.1/DTD/svg11.dtd">
<!-- Generated by graphviz version 2.43.0 (0)
 -->
<!-- Title: packages Pages: 1 -->
<svg width="1718pt" height="260pt"
 viewBox="0.00 0.00 1717.58 260.00" xmlns="http://www.w3.org/2000/svg" xmlns:xlink="http://www.w3.org/1999/xlink">
<g id="graph0" class="graph" transform="scale(1 1) rotate(0) translate(4 256)">
<title>packages</title>
<polygon fill="white" stroke="transparent" points="-4,4 -4,-256 1713.58,-256 1713.58,4 -4,4"/>
<!-- spyderisk -->
<g id="node1" class="node">
<title>spyderisk</title>
<polygon fill="none" stroke="black" points="365.58,-36 279.58,-36 279.58,0 365.58,0 365.58,-36"/>
<text text-anchor="middle" x="322.58" y="-14.3" font-family="Times,serif" font-size="14.00">spyderisk</text>
</g>
<!-- spyderisk.core_model -->
<g id="node6" class="node">
<title>spyderisk.core_model</title>
<polygon fill="none" stroke="black" points="763.08,-252 592.08,-252 592.08,-216 763.08,-216 763.08,-252"/>
<text text-anchor="middle" x="677.58" y="-230.3" font-family="Times,serif" font-size="14.00">spyderisk.core_model</text>
</g>
<!-- spyderisk&#45;&gt;spyderisk.core_model -->
<g id="edge1" class="edge">
<title>spyderisk&#45;&gt;spyderisk.core_model</title>
<path fill="none" stroke="black" d="M279.5,-19.67C201.54,-21.89 41.91,-31.4 7.58,-72 -2.76,-84.22 -2.2,-95.33 7.58,-108 76.44,-197.21 413.77,-222.87 581.92,-230.16"/>
<polygon fill="black" stroke="black" points="592.01,-230.58 581.83,-234.66 587.01,-230.37 582.02,-230.16 582.02,-230.16 582.02,-230.16 587.01,-230.37 582.21,-225.67 592.01,-230.58 592.01,-230.58"/>
</g>
<!-- spyderisk.domain_model -->
<g id="node7" class="node">
<title>spyderisk.domain_model</title>
<polygon fill="none" stroke="black" points="774.08,-180 581.08,-180 581.08,-144 774.08,-144 774.08,-180"/>
<text text-anchor="middle" x="677.58" y="-158.3" font-family="Times,serif" font-size="14.00">spyderisk.domain_model</text>
</g>
<!-- spyderisk&#45;&gt;spyderisk.domain_model -->
<g id="edge2" class="edge">
<title>spyderisk&#45;&gt;spyderisk.domain_model</title>
<path fill="none" stroke="black" d="M365.63,-19.85C446.83,-22.37 618.18,-32.37 659.58,-72 675.98,-87.71 679.62,-113.93 679.67,-133.86"/>
<polygon fill="black" stroke="black" points="679.4,-143.89 675.17,-133.77 679.53,-138.89 679.67,-133.89 679.67,-133.89 679.67,-133.89 679.53,-138.89 684.17,-134.02 679.4,-143.89 679.4,-143.89"/>
</g>
<!-- spyderisk.risk_vector -->
<g id="node8" class="node">
<title>spyderisk.risk_vector</title>
<polygon fill="none" stroke="black" points="460.08,-180 291.08,-180 291.08,-144 460.08,-144 460.08,-180"/>
<text text-anchor="middle" x="375.58" y="-158.3" font-family="Times,serif" font-size="14.00">spyderisk.risk_vector</text>
</g>
<!-- spyderisk&#45;&gt;spyderisk.risk_vector -->
<g id="edge3" class="edge">
<title>spyderisk&#45;&gt;spyderisk.risk_vector</title>
<path fill="none" stroke="black" d="M279.51,-19.96C203.72,-22.66 51.41,-32.94 18.58,-72 8.28,-84.25 8.13,-95.88 18.58,-108 51.84,-146.57 186.84,-157.53 280.93,-160.39"/>
<polygon fill="black" stroke="black" points="291.05,-160.67 280.93,-164.89 286.05,-160.53 281.05,-160.39 281.05,-160.39 281.05,-160.39 286.05,-160.53 281.18,-155.89 291.05,-160.67 291.05,-160.67"/>
</g>
<!-- spyderisk.system_model -->
<g id="node9" class="node">
<title>spyderisk.system_model</title>
<polygon fill="none" stroke="black" points="898.08,-108 707.08,-108 707.08,-72 898.08,-72 898.08,-108"/>
<text text-anchor="middle" x="802.58" y="-86.3" font-family="Times,serif" font-size="14.00">spyderisk.system_model</text>
</g>
<!-- spyderisk&#45;&gt;spyderisk.system_model -->
<g id="edge4" class="edge">
<title>spyderisk&#45;&gt;spyderisk.system_model</title>
<path fill="none" stroke="black" d="M365.61,-25.01C434.62,-34.68 574.32,-54.39 692.58,-72 694.04,-72.22 695.51,-72.44 697,-72.66"/>
<polygon fill="black" stroke="black" points="706.89,-74.15 696.34,-77.11 701.95,-73.4 697,-72.66 697,-72.66 697,-72.66 701.95,-73.4 697.67,-68.21 706.89,-74.15 706.89,-74.15"/>
</g>
<!-- spyderisk.attack_path -->
<g id="node2" class="node">
<title>spyderisk.attack_path</title>
<polygon fill="none" stroke="black" points="462.08,-108 289.08,-108 289.08,-72 462.08,-72 462.08,-108"/>
<text text-anchor="middle" x="375.58" y="-86.3" font-family="Times,serif" font-size="14.00">spyderisk.attack_path</text>
</g>
<!-- spyderisk.attack_path&#45;&gt;spyderisk.domain_model -->
<g id="edge5" class="edge">
<title>spyderisk.attack_path&#45;&gt;spyderisk.domain_model</title>
<path fill="none" stroke="black" d="M449.07,-108.03C492.9,-118.2 548.7,-131.13 594.18,-141.67"/>
<polygon fill="black" stroke="black" points="604.02,-143.95 593.26,-146.08 599.15,-142.82 594.28,-141.69 594.28,-141.69 594.28,-141.69 599.15,-142.82 595.29,-137.31 604.02,-143.95 604.02,-143.95"/>
</g>
<!-- spyderisk.attack_path&#45;&gt;spyderisk.risk_vector -->
<g id="edge6" class="edge">
<title>spyderisk.attack_path&#45;&gt;spyderisk.risk_vector</title>
<path fill="none" stroke="black" d="M375.58,-108.3C375.58,-116.02 375.58,-125.29 375.58,-133.89"/>
<polygon fill="black" stroke="black" points="375.58,-143.9 371.08,-133.9 375.58,-138.9 375.58,-133.9 375.58,-133.9 375.58,-133.9 375.58,-138.9 380.08,-133.9 375.58,-143.9 375.58,-143.9"/>
</g>
<!-- spyderisk.attack_tree -->
<g id="node3" class="node">
<title>spyderisk.attack_tree</title>
<polygon fill="none" stroke="black" points="650.58,-108 480.58,-108 480.58,-72 650.58,-72 650.58,-108"/>
<text text-anchor="middle" x="565.58" y="-86.3" font-family="Times,serif" font-size="14.00">spyderisk.attack_tree</text>
</g>
<!-- spyderisk.attack_tree&#45;&gt;spyderisk.domain_model -->
<g id="edge7" class="edge">
<title>spyderisk.attack_tree&#45;&gt;spyderisk.domain_model</title>
<path fill="none" stroke="black" d="M592.97,-108.12C607.48,-117.19 625.49,-128.45 641.16,-138.24"/>
<polygon fill="black" stroke="black" points="650.07,-143.81 639.21,-142.33 645.83,-141.16 641.59,-138.51 641.59,-138.51 641.59,-138.51 645.83,-141.16 643.98,-134.69 650.07,-143.81 650.07,-143.81"/>
</g>
<!-- spyderisk.attack_tree&#45;&gt;spyderisk.risk_vector -->
<g id="edge8" class="edge">
<title>spyderisk.attack_tree&#45;&gt;spyderisk.risk_vector</title>
<path fill="none" stroke="black" d="M519.1,-108.12C492.66,-117.86 459.37,-130.13 431.51,-140.39"/>
<polygon fill="black" stroke="black" points="421.9,-143.93 429.73,-136.25 426.6,-142.2 431.29,-140.47 431.29,-140.47 431.29,-140.47 426.6,-142.2 432.84,-144.7 421.9,-143.93 421.9,-143.93"/>
</g>
<!-- spyderisk.config -->
<g id="node4" class="node">
<title>spyderisk.config</title>
<polygon fill="none" stroke="black" points="1426.08,-36 1293.08,-36 1293.08,0 1426.08,0 1426.08,-36"/>
<text text-anchor="middle" x="1359.58" y="-14.3" font-family="Times,serif" font-size="14.00">spyderisk.config</text>
</g>
<!-- spyderisk.config.test_config -->
<g id="node5" class="node">
<title>spyderisk.config.test_config</title>
<polygon fill="none" stroke="black" points="1131.08,-108 916.08,-108 916.08,-72 1131.08,-72 1131.08,-108"/>
<text text-anchor="middle" x="1023.58" y="-86.3" font-family="Times,serif" font-size="14.00">spyderisk.config.test_config</text>
</g>
<!-- spyderisk.domain_model&#45;&gt;spyderisk.core_model -->
<g id="edge9" class="edge">
<title>spyderisk.domain_model&#45;&gt;spyderisk.core_model</title>
<path fill="none" stroke="black" d="M677.58,-180.3C677.58,-188.02 677.58,-197.29 677.58,-205.89"/>
<polygon fill="black" stroke="black" points="677.58,-215.9 673.08,-205.9 677.58,-210.9 677.58,-205.9 677.58,-205.9 677.58,-205.9 677.58,-210.9 682.08,-205.9 677.58,-215.9 677.58,-215.9"/>
</g>
<!-- spyderisk.system_model&#45;&gt;spyderisk.core_model -->
<g id="edge10" class="edge">
<title>spyderisk.system_model&#45;&gt;spyderisk.core_model</title>
<path fill="none" stroke="black" d="M803.14,-108.23C802.89,-127.62 799.73,-159.14 783.58,-180 773.2,-193.41 758.52,-203.67 743.38,-211.43"/>
<polygon fill="black" stroke="black" points="733.93,-215.95 741.02,-207.58 738.45,-213.79 742.96,-211.64 742.96,-211.64 742.96,-211.64 738.45,-213.79 744.9,-215.7 733.93,-215.95 733.93,-215.95"/>
</g>
<!-- spyderisk.system_model&#45;&gt;spyderisk.domain_model -->
<g id="edge11" class="edge">
<title>spyderisk.system_model&#45;&gt;spyderisk.domain_model</title>
<path fill="none" stroke="black" d="M772,-108.12C755.5,-117.36 734.95,-128.87 717.24,-138.79"/>
<polygon fill="black" stroke="black" points="708.27,-143.81 714.8,-135 712.63,-141.37 717,-138.92 717,-138.92 717,-138.92 712.63,-141.37 719.2,-142.85 708.27,-143.81 708.27,-143.81"/>
</g>
<!-- spyderisk.system_model&#45;&gt;spyderisk.risk_vector -->
<g id="edge12" class="edge">
<title>spyderisk.system_model&#45;&gt;spyderisk.risk_vector</title>
<path fill="none" stroke="black" d="M707.01,-106.67C636.48,-118.23 540.93,-133.89 470.54,-145.43"/>
<polygon fill="black" stroke="black" points="460.35,-147.1 469.49,-141.04 465.28,-146.29 470.22,-145.49 470.22,-145.49 470.22,-145.49 465.28,-146.29 470.94,-149.93 460.35,-147.1 460.35,-147.1"/>
</g>
<!-- spyderisk.tests -->
<g id="node10" class="node">
<title>spyderisk.tests</title>
<polygon fill="none" stroke="black" points="1569.08,-36 1444.08,-36 1444.08,0 1569.08,0 1569.08,-36"/>
<text text-anchor="middle" x="1506.58" y="-14.3" font-family="Times,serif" font-size="14.00">spyderisk.tests</text>
</g>
<!-- spyderisk.tests.test_domain_model -->
<g id="node11" class="node">
<title>spyderisk.tests.test_domain_model</title>
<polygon fill="none" stroke="black" points="1275.08,-36 1008.08,-36 1008.08,0 1275.08,0 1275.08,-36"/>
<text text-anchor="middle" x="1141.58" y="-14.3" font-family="Times,serif" font-size="14.00">spyderisk.tests.test_domain_model</text>
</g>
<!-- spyderisk.tests.test_domain_model&#45;&gt;spyderisk.config.test_config -->
<g id="edge13" class="edge">
<title>spyderisk.tests.test_domain_model&#45;&gt;spyderisk.config.test_config</title>
<path fill="none" stroke="black" d="M1112.71,-36.12C1097.28,-45.28 1078.09,-56.66 1061.48,-66.52"/>
<polygon fill="black" stroke="black" points="1052.55,-71.81 1058.86,-62.84 1056.85,-69.26 1061.15,-66.71 1061.15,-66.71 1061.15,-66.71 1056.85,-69.26 1063.45,-70.58 1052.55,-71.81 1052.55,-71.81"/>
</g>
<!-- spyderisk.tests.test_domain_model&#45;&gt;spyderisk.domain_model -->
<g id="edge14" class="edge">
<title>spyderisk.tests.test_domain_model&#45;&gt;spyderisk.domain_model</title>
<path fill="none" stroke="black" d="M1147.37,-36.13C1152.9,-56.03 1158.07,-88.61 1140.58,-108 1117.13,-133.99 913.78,-149.06 784.49,-156.1"/>
<polygon fill="black" stroke="black" points="774.16,-156.65 783.9,-151.62 779.15,-156.39 784.14,-156.12 784.14,-156.12 784.14,-156.12 779.15,-156.39 784.38,-160.61 774.16,-156.65 774.16,-156.65"/>
</g>
<!-- spyderisk.tests.test_risk_vector -->
<g id="node12" class="node">
<title>spyderisk.tests.test_risk_vector</title>
<polygon fill="none" stroke="black" points="271.08,-108 28.08,-108 28.08,-72 271.08,-72 271.08,-108"/>
<text text-anchor="middle" x="149.58" y="-86.3" font-family="Times,serif" font-size="14.00">spyderisk.tests.test_risk_vector</text>
</g>
<!-- spyderisk.tests.test_risk_vector&#45;&gt;spyderisk.risk_vector -->
<g id="edge15" class="edge">
<title>spyderisk.tests.test_risk_vector&#45;&gt;spyderisk.risk_vector</title>
<path fill="none" stroke="black" d="M204.57,-108.03C236.56,-117.94 277.06,-130.49 310.61,-140.88"/>
<polygon fill="black" stroke="black" points="320.33,-143.89 309.45,-145.23 315.56,-142.41 310.78,-140.93 310.78,-140.93 310.78,-140.93 315.56,-142.41 312.11,-136.63 320.33,-143.89 320.33,-143.89"/>
</g>
<!-- spyderisk.tests.test_system_model -->
<g id="node13" class="node">
<title>spyderisk.tests.test_system_model</title>
<polygon fill="none" stroke="black" points="953.58,-36 687.58,-36 687.58,0 953.58,0 953.58,-36"/>
<text text-anchor="middle" x="820.58" y="-14.3" font-family="Times,serif" font-size="14.00">spyderisk.tests.test_system_model</text>
</g>
<!-- spyderisk.tests.test_system_model&#45;&gt;spyderisk.config.test_config -->
<g id="edge16" class="edge">
<title>spyderisk.tests.test_system_model&#45;&gt;spyderisk.config.test_config</title>
<path fill="none" stroke="black" d="M869.98,-36.03C898.46,-45.86 934.46,-58.27 964.45,-68.61"/>
<polygon fill="black" stroke="black" points="973.95,-71.89 963.03,-72.88 969.23,-70.26 964.5,-68.63 964.5,-68.63 964.5,-68.63 969.23,-70.26 965.97,-64.38 973.95,-71.89 973.95,-71.89"/>
</g>
<!-- spyderisk.tests.test_system_model&#45;&gt;spyderisk.system_model -->
<g id="edge17" class="edge">
<title>spyderisk.tests.test_system_model&#45;&gt;spyderisk.system_model</title>
<path fill="none" stroke="black" d="M816.13,-36.3C814.12,-44.1 811.71,-53.49 809.47,-62.17"/>
<polygon fill="black" stroke="black" points="806.97,-71.9 805.11,-61.09 808.22,-67.05 809.46,-62.21 809.46,-62.21 809.46,-62.21 808.22,-67.05 813.82,-63.33 806.97,-71.9 806.97,-71.9"/>
</g>
<!-- spyderisk.utils -->
<g id="node14" class="node">
<title>spyderisk.utils</title>
<polygon fill="none" stroke="black" points="1709.58,-36 1587.58,-36 1587.58,0 1709.58,0 1709.58,-36"/>
<text text-anchor="middle" x="1648.58" y="-14.3" font-family="Times,serif" font-size="14.00">spyderisk.utils</text>
</g>
</g>
</svg>
